<?xml version="1.0" encoding="utf-8"?>
<!-- Generator: Adobe Illustrator 19.2.1, SVG Export Plug-In . SVG Version: 6.00 Build 0)  -->
<svg version="1.1" id="Layer_1" xmlns="http://www.w3.org/2000/svg" xmlns:xlink="http://www.w3.org/1999/xlink" x="0px" y="0px"
	 viewBox="0 0 572.8 291.8" style="enable-background:new 0 0 572.8 291.8;" xml:space="preserve">
<style type="text/css">
	.st0{fill:#FFFFFF;}
</style>
<title>MiamiSkylineWhite</title>
<g>
	<path class="st0" d="M567.9,85.2h-17V58.9h-4.8v-0.3h-2.5v-0.6H543v-0.6h-1v0.6h-2.3v0.6h-1v-2H538v2h-1.1V58h-1.2v0.6h-1.8v-1.4
		h-0.6v1.4h-3.7v0.3h-3.7v39.9h-3.7V71.5h-4.9v0.2l-6.1,0.7v1h-4v2h-1.6v7.6h-3.5v6.3h0.7v10.1c-1.4,0.1-2.6,0.2-3.8,0.2v-4.6h-1
		v-4.2h-0.8v-2h-0.6v-0.8l-4.1-5.9h-1.2l-4.1,5.9v0.8h-0.6v2h-1v4.2h-2v1.5h-2.1v-1h-2.8v-1h-2v1h-2.3v-3.6h-4.9v-0.6H465v0.6h-3.6
		v3.6h-3.7v-16l0,0l0.6-0.3v-0.6h0.1v-0.1h-0.1v-4.3h0.2v-0.4h-2.4l0,0h2.3l-0.7-0.5l-0.5-1v-0.4l0.2-0.2l-0.2-0.2l-0.1-1.3
		l-0.1,1.3l-0.2,0.2l0.2,0.2v0.4l-0.5,1l-0.4,0.3v-5.4l1-0.8H456v-0.6h-0.2v-1.1h0.2v-0.4h-0.2v-0.6h0.2v-0.4h-0.3l-0.2-2h-0.3
		l-0.2,2h-0.3v0.4h0.1v0.6h-1v-2.9l0.4-0.3l-0.6-0.3v-6.9l0.6-0.3l-0.6-0.2h-0.1v-0.6h-0.1v-1.4h0.1l0.1-0.3l-0.1-0.2h-0.1V51
		l0.1-0.1l-0.2-0.2l-0.1-1l-0.1,1l-0.2,0.2l0.1,0.1v0.7h-0.4v-2.1h0.1l0.1-0.2l-0.1-0.2h-0.3v-0.8l0,0c0.1-1.1-0.5-2.1-1.4-2.7v-0.4
		h0.1v-0.2H451v-2.1h0.1v-0.3H451c-0.1-0.2-0.2-0.4-0.4-0.5c0-0.2-0.2-0.4-0.4-0.6v-1.4l0.2-0.2l0.8-0.1l-0.8-0.1l-0.2-0.2v-1.1
		l0.2-0.1l0.2-0.3c0,0-0.5-0.2-0.3-0.3c0.1-0.1,0.2-0.2,0.2-0.3c0.1,0,0.2,0,0.3,0c0.1-0.1,0-0.3-0.1-0.3c0,0,0,0-0.1,0
		c-0.2,0-0.3-0.2-0.3-0.3h-0.1v-0.7v0.7L450,37c-0.2-0.1-0.4,0.2-0.3,0.2c0.2,0,0.3,0,0.5,0.1v0.3c-0.1,0-0.3,0.1-0.3,0.3
		c-0.1,0.3-0.2,0.3-0.3,0.3h-0.4c0.1,0.2,0.2,0.3,0.4,0.4c0.1,0,0.2,0.1,0.4,0.2c0,0,0.1,0,0.1,0v1.1l-0.2,0.2l-0.8,0.1l0.8,0.1
		l0.2,0.2v1.4c-0.2,0.1-0.3,0.3-0.4,0.6c-0.2,0.1-0.3,0.3-0.4,0.5h-0.1v0.3h0.1v2.1h-0.2v0.2h0.1v0.4c-0.9,0.6-1.4,1.6-1.4,2.7l0,0
		v0.8h-0.3l-0.1,0.2l0.1,0.2h0.1v2.1h-0.4V51l0.1-0.1l-0.2-0.2l-0.1-1l-0.1,1l-0.2,0.2l0.1,0.1v0.7h-0.1l-0.1,0.2l0.1,0.3H447v1.4
		h-0.1v0.6h-0.1l-0.6,0.2l0.6,0.3v6.9l-0.6,0.3l0.4,0.3v2.9h-1v-0.6h0.1v-0.4h-0.3l-0.2-2h-0.3l-0.2,2h-0.3v0.4h0.1v0.6h-0.2v0.4
		h0.2v1.1h-0.2v0.6h-1.1l1,0.8v5.4l-0.4-0.3l-0.5-1v-0.4l0.2-0.2l-0.2-0.2l-0.1-1.3l-0.1,1.3l-0.2,0.2l0.2,0.2v0.4l-0.5,1l-0.7,0.5
		h2.3l0,0h-2.4v0.4h0.2v4.3h-0.1v0.1h0.1v0.7l0.6,0.3l0,0v22.4h-2.9v-17h-7.4v14.1H431v2.8h-5v-0.7h-1.5v-0.8h1.5v-0.9h-1.5v-0.9
		h1.5v-0.9h-1.5v-0.9h1.5v-0.9h-1.5v-0.9h1.5v-0.9h-1.5v-0.9h1.5v-0.9h-1.5v-0.9h1.5V90h-1.5v-0.9h1.5v-0.9h-1.5v-0.9h1.5v-0.9h-1.5
		v-1h1.5v-0.9h-1.5v-0.9h1.5v-0.9h-1.5v-4.1h-0.9v-2.1H420l-6.3,0.8h-1.3v-0.3h-0.7v0.3h-1.8v-0.6h-4v0.5H405v-1h0.9v-1H405v-1h0.9
		v-1H405v-1h0.9v-1H405v-1h0.9v-1H405v-1h0.9v-1H405v-1h0.9v-1H405v-1h0.9v-1H405v-1h0.9v-1H405v-2.3h0.8v-8.2h-2.7v-2.5h-4.6v-1
		c-5.8,0.7-9.6,2.1-12,4v1h0.8v2.6h-1v3.2h-1.5v-3.6H381V30.5h-1.8V25h-2.1v-8.8h-3.8v-0.5h-3.4v-0.5h-4.5v1h-6.5v-1.3h-5V25h-1.5
		v22.2h-1.7v23.8h-1.8v14h-1.6v5.4H345v10.8h-2.2v-5.6h-2.5v-6.4h-2.2V56.3H338v-0.6l-0.9-0.4v-0.8h-1.5v-1l-1.7-0.3v-0.5h-0.4V52
		h-0.4v-1.9h-0.3V52h-1.2v0.6h-3.2v1.8h-1.7v1.8h-0.2v1.1h-1.7v25h-2.2v6.2h-5.5v6.9h-2.6v2.8h-0.9v1.2h-2.9v-1.8h-2.8v-0.2h0.3
		v-1.3h-0.4v-1.3h0.4v-1.3h-0.4v-1.3h0.4v-1.3h-0.4v-1.3h0.4v-1.3h-0.4v-1.3h0.4v-1.3h-0.4v-1.3h0.4v-1.3h-0.4v-1.3h0.4v-1.3h-0.4
		v-1.3h0.4v-1.3h-0.4v-1.3h0.4v-1.3h-0.4v-1.3h0.4v-1.3h-0.4v-2.9h-3.3v-2.1h-1.5v-0.4h-0.5v-1H302v1h-3.2v0.4h-1v-1h-0.5v1h-2.7
		V56.6h-0.4v11.4h-3v2.1h-7.7v31.8h-2.8v-0.3h1.2v-1h-1.2v-1h1.2v-1h-1.2v-1h1.2v-1h-1.2v-1h1.2v-1h-1.2v-1h1.2v-1h-1.2v-1h1.2v-1
		h-1.2v-1h1.2v-1h-1.2v-1h1.2v-1h-1.2v-1h1.2v-1h-1.2v-1h1.2v-1h-1.2v-1h1.2v-1h-1.2v-1h1.2v-1h-1.2v-1h1.2v-1h-1.2v-1h1.2v-1h-1.2
		v-1h1.2v-1h-1.2v-1h1.2v-1h-1.2v-1h1.2v-1h-1.2v-1h1.2v-1h-1.2v-1h1.2v-1h-1.2v-1h1.2v-1h-1.2v-1h1.2v-1h-1.2v-1h1.2v-1h-1.2v-1
		h1.2v-1h-1.2v-1h1.2v-1h-1.2v-1h1.2v-1h-1.2v-1h1.2v-1h-1.2v-1h1.2v-1h-1.2v-1h1.2v-1h-1.2v-1h1.2v-1h-5.3v-3.1h1.7v-2.1h-22v2.1
		h1.7v3.1h-5.3v1h1.2v1h-1.2v1h1.2v1h-1.2v1h1.2v1h-1.2v1h1.2v1h-1.2v1h1.2v1h-1.2v1h1.2v1h-1.2v1h1.2v1h-1.2v1h1.2v1h-1.2v1h1.2v1
		h-1.2v1h1.2v1h-1.2v1h1.2V66h-1.6v-2.3h-6.6v-1.4h-2.7v-0.6h-2.2l-0.4-29.2l-0.4,29.2h-3.6v2h-9.3v3.1l1.7,6.5v28.4h-2.3V82.8h-3.2
		V53.6h-1.1v-0.7l-5.3-1.5h-3.9v-7.6h-0.4v7.6h-1.9V1.9h-1.7l-2.2-1.3H206V0h-1.2v0.6h-7.8V0.2h-0.6v0.5h-0.3v0.5l-3.4,0.4v0.4h-8.6
		v5.5h-2.1v0.7h0.5v1.6h-1.2v0.7h0.5V12h-1.2v0.7h0.5v1.6H180v0.7h0.5v1.6h-1.2v0.7h0.5v1.5h-1.2v0.7h0.5v1.6h-1.2V22h0.5v1.6h-1.2
		v0.8h1.2v1.6h-1.9v0.7h0.5v1.6h-1.2v0.7h0.5v1.6h-1.2v0.7h0.5v42h-7.4v15.4h-0.8V65.2h-10.3v3.2h-1.5v-5.9h-5.2v39.3H149V53.6h-0.3
		v-0.3l-12.4-1.3h-1.6l-7.9,1.3v0.3h-3.1v48.3H120v-2l-1.9-2V63.3h-15.2l-2.2-1.4l-23.4,1l-11.2-2.1l-7.7,0.1l-5.1-2l-1.1,1.8v6.5
		h-2.3v-1h-1.8l-3.4-2.7l-3.4,2.7h-1v-1.9H40v1.9h-0.4v1h-3.5v3.1h-1.6v1.5h-0.7v1.4h0.7v1.4h-0.7v1.4h0.7v1.4h-0.7v1.4h0.7v1.4
		h-0.7v1.4h0.7v1.4h-0.7v1.4h0.7v1.4h-0.7v1.4h0.7v1.4h-0.7v1.4h0.7v1.4h-0.7v1.4h0.7v1.3h-0.7v1.4h0.7v1.4h-0.7v1.4h0.7v1.4h-0.7
		v1.4h0.7v1H16.4V89h-1.4v-1.4h-1.9V75.5h-1.5v-1.2h0.8v-0.6h-0.8v-0.1h-0.9v-1.2h0.9v-1.1H8.5V70H7.3c-0.9-1.1-2.1-1.9-3.4-2.4
		v-0.5h-2v-0.4H0l0.7,33.9v41.5h571.7v-31.6l0.3-0.3V86.7h-4.8V85.2z M442.7,75c0-0.2,0.2-0.4,0.4-0.4s0.4,0.2,0.4,0.4v1.8h-0.7V75z
		 M450.2,37.5c0,0.1,0,0.1,0.1,0.1h-0.1V37.5L450.2,37.5z M456.8,75c0-0.2,0.2-0.4,0.4-0.4s0.4,0.2,0.4,0.4v1.8h-0.7V75z"/>
	<rect x="0" y="142.1" class="st0" width="572.8" height="134.7"/>
</g>
</svg>
